<svg xmlns="http://www.w3.org/2000/svg" viewBox="0 0 1200 700"><defs><linearGradient id="bg" x1="0" y1="0" x2="1" y2="1"><stop stop-color="#061522"/><stop offset="1" stop-color="#102a3a"/></linearGradient></defs><rect width="1200" height="700" fill="url(#bg)"/><text x="55" y="60" fill="white" font-size="34" font-family="Arial" font-weight="700">Pakistan's PhD &amp; MS Research</text><text x="55" y="98" fill="#f7c843" font-size="25" font-family="Arial" font-weight="700">FROM NUMBERS TO NATIONAL IMPACT</text><text x="55" y="128" fill="#b9d8e5" font-size="16" font-family="Arial">HEC 2024–25 postgraduate research capacity • AI/ML • Python • GeoAI • spatial intelligence</text><rect x="55" y="160" width="300" height="130" rx="18" fill="#0d2635" stroke="#00d4ff"/><text x="75" y="195" fill="#72e7ff" font-size="16" font-family="Arial">MS / MPhil</text><text x="75" y="240" fill="white" font-size="40" font-family="Arial" font-weight="700">166,712</text><text x="75" y="270" fill="#9bc3d2" font-size="14" font-family="Arial">students</text><rect x="375" y="160" width="300" height="130" rx="18" fill="#0d2635" stroke="#f7c843"/><text x="395" y="195" fill="#f7c843" font-size="16" font-family="Arial">PhD</text><text x="395" y="240" fill="white" font-size="40" font-family="Arial" font-weight="700">30,950</text><text x="395" y="270" fill="#9bc3d2" font-size="14" font-family="Arial">students</text><rect x="695" y="160" width="450" height="130" rx="18" fill="#111d32" stroke="#7c5cff"/><text x="720" y="195" fill="#bfaeff" font-size="16" font-family="Arial">TOTAL POSTGRADUATE RESEARCH TALENT</text><text x="720" y="248" fill="white" font-size="44" font-family="Arial" font-weight="700">197,662</text><text x="720" y="273" fill="#9bc3d2" font-size="14" font-family="Arial">potential research workforce</text><text x="55" y="335" fill="white" font-size="22" font-family="Arial" font-weight="700">PhD enrollment by region</text><g font-family="Arial" font-size="15"><text x="65" y="375" fill="#f7c843">Punjab</text><rect x="145" y="358" width="300" height="22" rx="11" fill="#f7c843"/><text x="460" y="376" fill="white">13,680 • 44.2%</text><text x="65" y="420" fill="#42d7ff">Federal</text><rect x="145" y="403" width="162" height="22" rx="11" fill="#42d7ff"/><text x="322" y="421" fill="white">7,417 • 24.0%</text><text x="65" y="465" fill="#a67cff">Sindh</text><rect x="145" y="448" width="104" height="22" rx="11" fill="#a67cff"/><text x="264" y="466" fill="white">4,747 • 15.3%</text><text x="65" y="510" fill="#69d14f">KP</text><rect x="145" y="493" width="95" height="22" rx="11" fill="#69d14f"/><text x="255" y="511" fill="white">4,346 • 14.0%</text><text x="65" y="555" fill="#ff7b43">Balochistan</text><rect x="145" y="538" width="12" height="22" rx="11" fill="#ff7b43"/><text x="175" y="556" fill="white">416 • 1.3%</text></g><g transform="translate(600 330)"><rect width="545" height="250" rx="22" fill="#0b202c" stroke="#2f819c"/><text x="25" y="38" fill="white" font-size="20" font-family="Arial" font-weight="700">AI / ML / Python / GeoAI impact pipeline</text><g font-family="Arial" font-size="14" text-anchor="middle"><circle cx="55" cy="105" r="35" fill="#1b718a"/><text x="55" y="110" fill="white">PROBLEM</text><text x="110" y="110" fill="#f7c843" font-size="28">→</text><circle cx="165" cy="105" r="35" fill="#6b4fb3"/><text x="165" y="110" fill="white">DATA</text><text x="220" y="110" fill="#f7c843" font-size="28">→</text><circle cx="275" cy="105" r="35" fill="#2e9d65"/><text x="275" y="110" fill="white">MODEL</text><text x="330" y="110" fill="#f7c843" font-size="28">→</text><circle cx="385" cy="105" r="35" fill="#d59b2a"/><text x="385" y="110" fill="white">MAP</text><text x="440" y="110" fill="#f7c843" font-size="28">→</text><circle cx="495" cy="105" r="35" fill="#d35b57"/><text x="495" y="110" fill="white">IMPACT</text></g><text x="25" y="175" fill="#b9d8e5" font-size="14" font-family="Arial">National priorities</text><text x="25" y="205" fill="white" font-size="14" font-family="Arial">Agriculture • Water • Energy • Health • Infrastructure</text><text x="25" y="230" fill="white" font-size="14" font-family="Arial">Climate • Education • Manufacturing • Socio-economic development</text></g><text x="600" y="625" fill="#f7c843" font-size="19" font-family="Arial" font-weight="700">“Why does Pakistan need this research — and what changed because it was done?”</text></svg>